[Header]
FileType HTR
DataType HTRS
FileVersion 1
NumSegments 22
NumFrames 4
DataFrameRate 24
EulerRotationOrder ZYX
CalibrationUnits mm
RotationUnits Degrees
GlobalAxisofGravity Y
BoneLengthAxis Y
ScaleFactor 1.0
[SegmentNames&Hierarchy]
reference	GLOBAL
Hips	reference
Spine	Hips
Spine1	Spine
Neck	Spine1
Head	Neck
LeftShoulder	Spine1
LeftArm	LeftShoulder
LeftForeArm	LeftArm
LeftHand	LeftForeArm
RightShoulder	Spine1
RightArm	RightShoulder
RightForeArm	RightArm
RightHand	RightForeArm
LeftUpLeg	Hips
LeftLeg	LeftUpLeg
LeftFoot	LeftLeg
LeftToeBase	LeftFoot
RightUpLeg	Hips
RightLeg	RightUpLeg
RightFoot	RightLeg
RightToeBase	RightFoot
[BasePosition]
reference	0	0	0	0	0	0	1
Hips	0	0	0	0	0	0	1
Spine	0	0	0	0	-0	90	1
Spine1	0	0	0	0	0	0	1
Neck	0	0	0	-7.352327771	-7.352327771	90	1
Head	0	0	0	0	-0	90	1
LeftShoulder	0	0	0	0	0	0	1
LeftArm	0	0	0	0	0	0	1
LeftForeArm	0	0	0	0	0	0	1
LeftHand	0	0	0	0	0	0	1
RightShoulder	0	0	0	0	-0	180	1
RightArm	0	0	0	0	-0	180	1
RightForeArm	0	0	0	0	-0	180	1
RightHand	0	0	0	0	-0	180	1
LeftUpLeg	0	0	0	0	-0	-90	1
LeftLeg	0	0	0	0	-0	-90	1
LeftFoot	0	0	0	66.57146043	-66.57146043	-90	1
LeftToeBase	0	0	0	0	-90	0	1
RightUpLeg	0	0	0	0	-0	-90	1
RightLeg	0	0	0	0	-0	-90	1
RightFoot	0	0	0	66.57146043	-66.57146043	-90	1
RightToeBase	0	0	0	0	-90	0	1
[reference]
100	0	0	0	0	-0	0	1.0
101	0	0	0	0	-0	0	1.0
102	0	0	0	0	-0	0	1.0
103	0	0	0	0	-0	0	1.0
[Hips]
100	4.270498276	8.25135994	1.384072304	0.8546085358	-129.0128937	3.460940361	1.0
101	4.378210068	8.226622581	1.380012631	0.282387048	-129.7684326	4.069113255	1.0
102	4.391309738	8.222119331	1.376002431	-1.149408698	-130.0117645	3.643552303	1.0
103	4.400650024	8.287332535	1.372043371	-0.333770752	-130.257019	2.683731079	1.0
[Spine]
100	0	0.7457100153	0	-7.692100525	-1.245518088	-89.30592346	1.0
101	0	0.7457100153	0	-8.236282349	-1.351070046	-88.57985687	1.0
102	0	0.7457100153	0	-6.585921288	-1.357545614	-88.33552551	1.0
103	0	0.7457100153	0	-7.065928936	-1.029521227	-88.27742004	1.0
[Spine1]
100	0	2.140589952	0	5.854606152	-0.7162107825	5.244259357	1.0
101	0	2.140589952	0	9.090017319	-0.9823637605	6.23901701	1.0
102	0	2.140589952	0	8.794286728	-0.9721317887	6.277296543	1.0
103	0	2.140589952	0	8.0047369	-0.7918675542	5.775069237	1.0
[Neck]
100	0	2.32246995	0	-13.83886814	15.46877289	-94.7771759	1.0
101	0	2.32246995	0	-18.21187592	15.93523407	-96.66181946	1.0
102	0	2.32246995	0	-17.37944031	16.37021828	-96.89398956	1.0
103	0	2.32246995	0	-15.4573679	16.41623688	-96.5713501	1.0
[Head]
100	0	1.409579992	0.1818799973	-5.134205341	8.883943558	-92.39367676	1.0
101	0	1.409579992	0.1818799973	-3.686815023	9.795312881	-92.04641724	1.0
102	0	1.409579992	0.1818799973	-3.918974161	10.2042284	-92.08295441	1.0
103	0	1.409579992	0.1818799973	-4.143420696	10.09885597	-92.26417542	1.0
[LeftShoulder]
100	0.3668199778	1.946700096	-0.02662999928	-18.59738922	-13.21681118	0.6011447906	1.0
101	0.3668199778	1.946700096	-0.02662999928	-17.09276772	-12.970994	0.1637971848	1.0
102	0.3668199778	1.946700096	-0.02662999928	-16.68570137	-13.1945982	-0.7075110078	1.0
103	0.3668199778	1.946700096	-0.02662999928	-16.98131371	-12.98741817	-0.3707787395	1.0
[LeftArm]
100	1.140689969	0	0	44.77323151	-5.096077919	-65.01451111	1.0
101	1.140689969	0	0	45.85697556	-5.85454464	-65.91767883	1.0
102	1.140689969	0	0	46.12765503	-4.95193243	-65.66858673	1.0
103	1.140689969	0	0	45.79898834	-4.544743061	-65.53101349	1.0
[LeftForeArm]
100	2.749800205	0	0	49.96837234	-140.1970215	-19.14955902	1.0
101	2.749800205	0	0	52.16930771	-140.5882263	-19.32071114	1.0
102	2.749800205	0	0	51.56636047	-139.7078247	-19.87344742	1.0
103	2.749800205	0	0	51.64144897	-138.653717	-20.58183289	1.0
[LeftHand]
100	2.295179844	0	0	-0.3928265572	-21.20635986	2.036575317	1.0
101	2.295179844	0	0	0.7731537819	-21.25841904	2.891611814	1.0
102	2.295179844	0	0	0.03344037011	-21.46740723	2.466991186	1.0
103	2.295179844	0	0	-0.2511920333	-21.792099	2.529650927	1.0
[RightShoulder]
100	-0.3601199985	1.946700096	-0.02662999928	-7.973134518	5.693295002	174.6682739	1.0
101	-0.3601199985	1.946700096	-0.02662999928	-7.758635521	6.115271568	174.5750427	1.0
102	-0.3601199985	1.946700096	-0.02662999928	-7.231325626	6.286235809	175.0972748	1.0
103	-0.3601199985	1.946700096	-0.02662999928	-7.269958496	6.270441055	175.1828918	1.0
[RightArm]
100	-1.140689969	0	0	48.78272247	9.3074646	-105.879631	1.0
101	-1.140689969	0	0	55.18222046	9.034825325	-103.3108978	1.0
102	-1.140689969	0	0	58.25201416	8.467423439	-102.6547699	1.0
103	-1.140689969	0	0	59.36673737	8.582138062	-102.6760712	1.0
[RightForeArm]
100	-2.749800205	0	0	-108.045639	41.00965881	30.07968903	1.0
101	-2.749800205	0	0	-98.40497589	38.01489258	34.67593384	1.0
102	-2.749800205	0	0	-94.54257965	37.77720642	37.40472412	1.0
103	-2.749800205	0	0	-93.32946777	37.96933365	38.31554413	1.0
[RightHand]
100	-2.295179844	0	0	-1.937394261	19.7310257	165.7389221	1.0
101	-2.295179844	0	0	-5.373414516	19.59662437	165.0239563	1.0
102	-2.295179844	0	0	-6.54249382	19.79147911	165.19841	1.0
103	-2.295179844	0	0	-6.390541553	19.74442291	165.7692261	1.0
[LeftUpLeg]
100	0.9094099998	0	0	-36.63887024	1.848307967	107.47686	1.0
101	0.9094099998	0	0	-37.06175995	4.715312958	106.9201889	1.0
102	0.9094099998	0	0	-34.17733002	4.76198864	105.8811188	1.0
103	0.9094099998	0	0	-32.33261108	3.386788368	105.2393494	1.0
[LeftLeg]
100	0	-4.498080254	0	51.04785538	-2.324793816	65.50922394	1.0
101	0	-4.498080254	0	49.98051453	0.1668395102	70.09973907	1.0
102	0	-4.498080254	0	45.93913269	0.7863636017	73.52864075	1.0
103	0	-4.498080254	0	41.13166809	1.141549706	75.38801575	1.0
[LeftFoot]
100	0	-3.729400158	0	-33.37187576	113.4593048	16.25156021	1.0
101	0	-3.729400158	0	-35.98997498	112.4078217	12.50950623	1.0
102	0	-3.729400158	0	-33.28491592	111.2689133	13.14961243	1.0
103	0	-3.729400158	0	-31.41584778	108.850235	11.47395229	1.0
[LeftToeBase]
100	0	-0.5911099911	1.364109993	0	0	0	1.0
101	0	-0.5911099911	1.364109993	0	0	0	1.0
102	0	-0.5911099911	1.364109993	0	0	0	1.0
103	0	-0.5911099911	1.364109993	0	0	0	1.0
[RightUpLeg]
100	-0.9094099998	0	0	1.969877601	-20.29015541	88.38269043	1.0
101	-0.9094099998	0	0	-0.05909631029	-21.60865593	89.47005463	1.0
102	-0.9094099998	0	0	1.309989095	-23.27653122	88.58265686	1.0
103	-0.9094099998	0	0	1.824525595	-24.5601387	87.86235046	1.0
[RightLeg]
100	0	-4.498080254	0	28.2911911	-3.59945035	84.96689606	1.0
101	0	-4.498080254	0	31.69651222	-8.965911865	80.25309753	1.0
102	0	-4.498080254	0	32.1543808	1.158780217	86.91127014	1.0
103	0	-4.498080254	0	30.40783119	-0.0852946043	86.0714798	1.0
[RightFoot]
100	0	-3.729400158	0	62.15917587	55.61396027	122.2014618	1.0
101	0	-3.729400158	0	74.84757996	53.6811409	137.5113831	1.0
102	0	-3.729400158	0	53.64198303	56.36606216	114.3351593	1.0
103	0	-3.729400158	0	58.17147827	55.2007637	117.2023697	1.0
[RightToeBase]
100	0	-0.5911099911	1.364109993	0	0	0	1.0
101	0	-0.5911099911	1.364109993	0	0	0	1.0
102	0	-0.5911099911	1.364109993	0	0	0	1.0
103	0	-0.5911099911	1.364109993	0	0	0	1.0
[EndOfFile]
